# xmcd
#
# Track frame offsets: 
#        150
#        8274
#        21866
#        37981
#        50621
#        63619
#        82739
#        97864
#        113911
#        130354
#        143611
#        159306
#        174716
#        192489
#        207490
#        222270
#        257343
#        260792
#        273344
#        287955
#
# Disc length: 4022 seconds
#
# Revision: 1
# Processed by: cddbd v1.4PL0 Copyright (c) Steve Scherf et al.
# Submitted via: ExactAudioCopy v0.90b4
#
DISCID=1c0fb414
DTITLE=Blues Brothers - The Definitive Collection
DYEAR=1992
DGENRE=R&B
TTITLE0=Opening: I can't turn you loose
TTITLE1=Hey Bartender
TTITLE2=Messin' With The Kid
TTITLE3=(I Got Everything I Need) Almost
TTITLE4=Rubber Biscuit
TTITLE5=I Don't Know
TTITLE6=Soul Man
TTITLE7=Who's Making Love?
TTITLE8=Do You Love Me/Mother Popcorn (You Got To Have A Mother For Me
TTITLE8=)
TTITLE9=Guilty
TTITLE10=Riot In Cell Block #9
TTITLE11=From The Bottom
TTITLE12=Going Back To Miami
TTITLE13=Everybody Needs Somebody To Love
TTITLE14=Expressway To Your Heart
TTITLE15=Sweet Home Chicago
TTITLE16=Closing: I Can't Turn You Loose
TTITLE17=Shake A Tail Feather (featuring Ray Charles)
TTITLE18=Think (featuring Aretha Franklin)
TTITLE19=Gimme Some Lovin'
EXTD=YEAR: 1992  ID3G:   0
EXTT0=
EXTT1=
EXTT2=
EXTT3=
EXTT4=
EXTT5=
EXTT6=
EXTT7=
EXTT8=
EXTT9=
EXTT10=
EXTT11=
EXTT12=
EXTT13=
EXTT14=
EXTT15=
EXTT16=
EXTT17=
EXTT18=
EXTT19=
PLAYORDER=
